/* XPM */
static const char* icon32_xpm[] = {
"32 32 254 2",
"  	c None",
". 	c #898989",
"+ 	c #808080",
"@ 	c #888888",
"# 	c #878787",
"$ 	c #000000",
"% 	c #A6A6A6",
"& 	c #858585",
"* 	c #420B0C",
"= 	c #550909",
"- 	c #2C0605",
"; 	c #5B1213",
"> 	c #501010",
", 	c #571111",
"' 	c #5D1213",
") 	c #490F10",
"! 	c #501112",
"~ 	c #5C1211",
"{ 	c #340E0D",
"] 	c #5A1212",
"^ 	c #491010",
"/ 	c #4F1012",
"( 	c #340F0E",
"_ 	c #530A0B",
": 	c #490808",
"< 	c #450B0C",
"[ 	c #000101",
"} 	c #961314",
"| 	c #490909",
"1 	c #420A0A",
"2 	c #5B0E10",
"3 	c #4F0A0C",
"4 	c #931112",
"5 	c #841111",
"6 	c #190303",
"7 	c #891112",
"8 	c #42090A",
"9 	c #43090A",
"0 	c #5B0E11",
"a 	c #4F0B0D",
"b 	c #A31314",
"c 	c #3A0B0A",
"d 	c #54090A",
"e 	c #5B0C0D",
"f 	c #000073",
"g 	c #000084",
"h 	c #000083",
"i 	c #000079",
"j 	c #A83229",
"k 	c #9C2F2F",
"l 	c #750F10",
"m 	c #130304",
"n 	c #51090A",
"o 	c #6A0E0F",
"p 	c #0000AD",
"q 	c #0000C6",
"r 	c #0000C5",
"s 	c #0000B6",
"t 	c #BB1808",
"u 	c #AD1717",
"v 	c #300606",
"w 	c #531113",
"x 	c #620E0E",
"y 	c #B3B3A4",
"z 	c #D7D7C1",
"A 	c #D4D4C0",
"B 	c #CCCCBB",
"C 	c #CDCDBC",
"D 	c #DADAC3",
"E 	c #BFBFB4",
"F 	c #DDDDC4",
"G 	c #D0D0BD",
"H 	c #CBCBBB",
"I 	c #DBDBC4",
"J 	c #DCDCC4",
"K 	c #D6D5C1",
"L 	c #BDCACC",
"M 	c #A4B1B1",
"N 	c #1F0404",
"O 	c #2E0E0E",
"P 	c #6B0D0C",
"Q 	c #C4C4C2",
"R 	c #66669D",
"S 	c #7474A4",
"T 	c #DEDEDC",
"U 	c #DADADA",
"V 	c #D3D3D6",
"W 	c #151572",
"X 	c #202077",
"Y 	c #363683",
"Z 	c #000066",
"` 	c #9797B6",
" .	c #E9E9E2",
"..	c #181873",
"+.	c #040468",
"@.	c #4C4C8F",
"#.	c #E8E8E2",
"$.	c #BFBFBF",
"%.	c #961213",
"&.	c #591110",
"*.	c #541111",
"=.	c #3F0A0C",
"-.	c #C3C3C1",
";.	c #7474A3",
">.	c #DDDDDB",
",.	c #D8D8D8",
"'.	c #E9E9E1",
").	c #000064",
"!.	c #A9A9BF",
"~.	c #E8E8E1",
"{.	c #E2E2DE",
"].	c #E7E7E0",
"^.	c #A8A8BF",
"/.	c #D9D9D9",
"(.	c #E5E5DF",
"_.	c #F4F4E7",
":.	c #1F1F76",
"<.	c #A1A1BB",
"[.	c #C1C1C0",
"}.	c #570B0C",
"|.	c #611212",
"1.	c #2E0E0F",
"2.	c #4B0A0A",
"3.	c #67679D",
"4.	c #DBDBDA",
"5.	c #ABABC0",
"6.	c #EAEAE2",
"7.	c #D7D7D8",
"8.	c #F0F0E5",
"9.	c #0D0D6D",
"0.	c #BDBDCA",
"a.	c #C0C0BF",
"b.	c #891111",
"c.	c #370D0D",
"d.	c #820F11",
"e.	c #DCDCDB",
"f.	c #8888AE",
"g.	c #44448A",
"h.	c #E1E1DD",
"i.	c #060669",
"j.	c #000059",
"k.	c #5F5F98",
"l.	c #EBEBE3",
"m.	c #BEBEBE",
"n.	c #790F0F",
"o.	c #4F1112",
"p.	c #060808",
"q.	c #DCDCDA",
"r.	c #9696B6",
"s.	c #333381",
"t.	c #E4E4DE",
"u.	c #EFEFE4",
"v.	c #232378",
"w.	c #9595B5",
"x.	c #571212",
"y.	c #5C1213",
"z.	c #5B0C0C",
"A.	c #7777A5",
"B.	c #000058",
"C.	c #E4E4DF",
"D.	c #E0E0DD",
"E.	c #DADAD9",
"F.	c #DEDEDB",
"G.	c #E2E2DD",
"H.	c #761011",
"I.	c #190B0C",
"J.	c #591213",
"K.	c #690D0E",
"L.	c #65659C",
"M.	c #3E3E87",
"N.	c #8282AB",
"O.	c #8080A9",
"P.	c #7878A5",
"Q.	c #DFDFDC",
"R.	c #8F8FB1",
"S.	c #9090B2",
"T.	c #515191",
"U.	c #606099",
"V.	c #B6B6C6",
"W.	c #68689E",
"X.	c #A3A3BC",
"Y.	c #00005E",
"Z.	c #C7C7D0",
"`.	c #831111",
" +	c #390F0F",
".+	c #4B090B",
"++	c #620E0F",
"@+	c #B5B5C7",
"#+	c #8787AE",
"$+	c #8585AD",
"%+	c #7F7FA9",
"&+	c #E1E1DE",
"*+	c #C8C8D1",
"=+	c #6F6FA1",
"-+	c #63639B",
";+	c #9C9CB9",
">+	c #E5E5E0",
",+	c #D5D5D8",
"'+	c #62629A",
")+	c #D3D3D7",
"!+	c #DDDDDC",
"~+	c #200404",
"{+	c #270606",
"]+	c #49090A",
"^+	c #6A0D0C",
"/+	c #A7A7A7",
"(+	c #C2C2C0",
"_+	c #C3C3C0",
":+	c #951313",
"<+	c #520908",
"[+	c #360909",
"}+	c #490B0D",
"|+	c #8D1110",
"1+	c #981113",
"2+	c #320708",
"3+	c #9B1312",
"4+	c #560A0C",
"5+	c #A71312",
"6+	c #9A1211",
"7+	c #3E0A0C",
"8+	c #8D1111",
"9+	c #320809",
"0+	c #9A1313",
"a+	c #650C0D",
"b+	c #0D0505",
"c+	c #350708",
"d+	c #040101",
"e+	c #4B1110",
"f+	c #200C0C",
"g+	c #561111",
"h+	c #3A0E0F",
"i+	c #140A0A",
"j+	c #3D0F10",
"k+	c #0C0909",
"l+	c #4B1010",
"m+	c #3B0F0F",
"n+	c #0D0A0A",
"o+	c #430808",
"p+	c #190404",
"q+	c #490D0C",
"r+	c #8A8A8A",
"s+	c #848484",
"t+	c #8C8C8C",
"u+	c #8B8B8B",
"v+	c #A4A4A4",
"w+	c #9E9E9E",
"x+	c #5D5D5D",
"y+	c #989898",
"z+	c #969696",
"A+	c #A0A0A0",
"B+	c #E7E7E7",
"C+	c #E4E4E4",
"D+	c #E0E0E0",
"E+	c #E3E3E3",
"                                                                ",
"      . + @ # # # # # # # # # # # # # # # # # # # # @ + .       ",
"    $ $ $ $ $ $ $ $ $ $ $ $ $ $ $ $ $ $ $ $ $ $ $ $ $ $ $ $     ",
"  % $ $ $ $ $ $ $ $ $ $ $ $ $ $ $ $ $ $ $ $ $ $ $ $ $ $ $ $ %   ",
"  & $ $ $ * = - ; > , ' ) ! ~ { ] > , ' ^ / ~ ( _ : < $ $ $ &   ",
"  # $ $ [ } | 1 2 3 4 5 6 7 | 8 2 3 4 5 6 7 | 9 0 a b c $ $ #   ",
"  # $ $ d e f g h h h h h h h h h h h h h h g i j k l m $ $ #   ",
"  # $ $ n o p q r r r r r r r r q r r r r r q s t u 5 v $ $ #   ",
"  # $ $ w x y z A B B B B C D B E F G H I J F K L M N O $ $ #   ",
"  # $ $ ! P Q R S T U U U V W X Y Z `  .Z ..+.@.#.$.%.&.$ $ #   ",
"  # $ $ *.=.-.R ;.>.,.,.'.).!.~.{.].^./.(.(._.:.<.[.}.|.$ $ #   ",
"  # $ $ 1.2.-.3.;.>.,.4.5...6.,.,./.4.,.7.'.8.9.0.a.b.*.$ $ #   ",
"  # $ $ c.d.-.3.;.>.,.e.f.g.h.,.,.,.,.,.6.i.j.k.l.m.n.o.$ $ #   ",
"  # $ $ p.7 -.3.;.>.,.q.r.s.t.,.,.,./.,.7.'.u.v.w.[.4 x.$ $ #   ",
"  # $ $ y.z.-.3.A.h.e.>.q.B.C.e.4.D.E.4.F.4.G.;.3.-.H.I.$ $ #   ",
"  # $ $ J.K.-.L.M.N.O.P.Q.R.Z S.<.T.U.V.W.X.f.Y.Z.a.`. +$ $ #   ",
"  # $ $ .+++[.@+#+$+$+%+4.&+*+=+-+;+>+,+f.'+S )+!+$.~+{+$ $ #   ",
"  # $ $ ]+^+/+[.(+(+(+(+m.m.a._+-.[.m.m.(+-.(+$.$./+:+<+$ $ #   ",
"  # $ $ [+}+|+1+2+3+4+5+6+7+8+1+2+3+4+5+6+7+8+1+9+0+a+1 $ $ #   ",
"  & $ $ $ b+c+d+e+f+~ g+h+i+j+k+l+f+~ g+m+i+j+n+o+p+q+$ $ $ &   ",
"  % $ $ $ $ $ $ $ $ $ $ $ $ $ $ $ $ $ $ $ $ $ $ $ $ $ $ $ $ %   ",
"    $ $ $ $ $ $ $ $ $ $ $ $ $ $ $ $ $ $ $ $ $ $ $ $ $ $ $ $     ",
"      r+s+t+u+u+u+u+u+u+t+u+u+u+u+u+u+t+u+u+u+u+u+u+t+s+r+      ",
"        v+% % % % % % % % % % % % % % % % % % % % % % v+        ",
"      w+x+y+z+z+z+z+z+z+z+z+z+z+z+z+z+z+z+z+z+z+z+z+y+x+w+      ",
"      A+y+B+C+C+C+C+C+C+C+C+C+C+C+C+C+C+C+C+C+C+C+C+B+y+A+      ",
"      A+z+C+D+D+D+D+D+D+D+D+D+D+D+D+D+D+D+D+D+D+D+D+C+z+A+      ",
"      A+z+C+D+D+D+D+D+D+D+D+D+D+D+D+D+D+D+D+D+D+D+D+C+z+A+      ",
"      A+y+B+C+C+C+C+C+C+C+C+C+C+C+C+C+E+E+C+C+C+C+C+B+y+A+      ",
"      w+x+y+z+z+z+z+z+z+z+z+z+z+z+z+z+z+z+z+z+z+z+z+y+x+w+      ",
"        w+A+A+A+A+A+A+A+A+A+A+A+A+A+A+A+A+A+A+A+A+A+A+w+        ",
"                                                                "};
