/* XPM */
static const char * icon64_xpm[] = {
"64 64 498 2",
"  	c None",
". 	c #A9A9A9",
"+ 	c #242424",
"@ 	c #000000",
"# 	c #6A6A6A",
"$ 	c #C2C2C2",
"% 	c #4F4F4F",
"& 	c #282828",
"* 	c #020E0E",
"= 	c #040E0E",
"- 	c #010E0E",
"; 	c #000D0D",
"> 	c #000E0E",
", 	c #070E0E",
"' 	c #040E0D",
") 	c #010D0D",
"! 	c #020D0D",
"~ 	c #0C0F0F",
"{ 	c #010E0D",
"] 	c #050E0E",
"^ 	c #080E0E",
"/ 	c #040D0D",
"( 	c #0D0F10",
"_ 	c #000202",
": 	c #641B1D",
"< 	c #B41214",
"[ 	c #AB1514",
"} 	c #AC1412",
"| 	c #A51515",
"1 	c #260805",
"2 	c #A71312",
"3 	c #AB1416",
"4 	c #830C0D",
"5 	c #A91315",
"6 	c #A61213",
"7 	c #AF1415",
"8 	c #B61417",
"9 	c #AC1414",
"0 	c #AA1314",
"a 	c #600A0A",
"b 	c #851216",
"c 	c #AF1013",
"d 	c #A91312",
"e 	c #AA1210",
"f 	c #A31313",
"g 	c #250703",
"h 	c #A81413",
"i 	c #AD1618",
"j 	c #850E0F",
"k 	c #AB1314",
"l 	c #791B1D",
"m 	c #050706",
"n 	c #8E1411",
"o 	c #9E1317",
"p 	c #A2120F",
"q 	c #841416",
"r 	c #270606",
"s 	c #190603",
"t 	c #510B0D",
"u 	c #5F0A0D",
"v 	c #A31615",
"w 	c #9C140F",
"x 	c #9C1316",
"y 	c #A11415",
"z 	c #A01412",
"A 	c #971417",
"B 	c #290704",
"C 	c #8A1412",
"D 	c #A31316",
"E 	c #591112",
"F 	c #000303",
"G 	c #5C0D0E",
"H 	c #931314",
"I 	c #220406",
"J 	c #42070A",
"K 	c #781313",
"L 	c #3B0A0C",
"M 	c #500A0B",
"N 	c #2A090A",
"O 	c #1F0306",
"P 	c #5C0C0F",
"Q 	c #840E0F",
"R 	c #78110F",
"S 	c #2C0607",
"T 	c #490A0B",
"U 	c #790F10",
"V 	c #230406",
"W 	c #1E0306",
"X 	c #6F0F13",
"Y 	c #9A1918",
"Z 	c #A61419",
"` 	c #470B0A",
" .	c #1B0607",
"..	c #00004A",
"+.	c #000064",
"@.	c #000063",
"#.	c #00004E",
"$.	c #70110C",
"%.	c #8B0404",
"&.	c #691010",
"*.	c #360706",
"=.	c #590E11",
"-.	c #AB1413",
";.	c #800E0B",
">.	c #800F13",
",.	c #00007E",
"'.	c #0000AA",
").	c #0000A8",
"!.	c #0000A9",
"~.	c #0000AB",
"{.	c #000085",
"].	c #A40300",
"^.	c #E4A7A7",
"/.	c #E3A7A7",
"(.	c #990303",
"_.	c #901114",
":.	c #8E1310",
"<.	c #6C1217",
"[.	c #A91517",
"}.	c #790D0E",
"|.	c #7D0F12",
"1.	c #00009D",
"2.	c #0000D2",
"3.	c #0000D0",
"4.	c #0000A4",
"5.	c #B50100",
"6.	c #C88585",
"7.	c #A90101",
"8.	c #881010",
"9.	c #610C0C",
"0.	c #6C0F0F",
"a.	c #AB1417",
"b.	c #5D0D0F",
"c.	c #390808",
"d.	c #000087",
"e.	c #0000B6",
"f.	c #0000B3",
"g.	c #0000B4",
"h.	c #00008B",
"i.	c #8C0000",
"j.	c #BA0000",
"k.	c #B90000",
"l.	c #860101",
"m.	c #7B0F10",
"n.	c #660D0F",
"o.	c #6D0F0F",
"p.	c #020E0F",
"q.	c #B21515",
"r.	c #9F1518",
"s.	c #290709",
"t.	c #818177",
"u.	c #AEAEA0",
"v.	c #ACAC9F",
"w.	c #ADAD9F",
"x.	c #AFAFA0",
"y.	c #ACAC9E",
"z.	c #ADACA1",
"A.	c #A1ACAC",
"B.	c #9EACAC",
"C.	c #A0AEAE",
"D.	c #778181",
"E.	c #710D0F",
"F.	c #1D0507",
"G.	c #4E0A0B",
"H.	c #050C0C",
"I.	c #030F0E",
"J.	c #880E13",
"K.	c #2B0505",
"L.	c #80100F",
"M.	c #A5A5A5",
"N.	c #DEDEDE",
"O.	c #DADADA",
"P.	c #ECECE4",
"Q.	c #EAEAE3",
"R.	c #DBDBDB",
"S.	c #DDDDDC",
"T.	c #E9E9E2",
"U.	c #E1E1DE",
"V.	c #B9B9C9",
"W.	c #AFAFC4",
"X.	c #C0C0CD",
"Y.	c #E9E9E3",
"Z.	c #E6E6E1",
"`.	c #E3E3DF",
" +	c #EDEDE5",
".+	c #EBEBE3",
"++	c #200505",
"@+	c #5F0C0C",
"#+	c #080F0E",
"$+	c #060D0D",
"%+	c #720F0F",
"&+	c #650F0F",
"*+	c #4A0704",
"=+	c #A3A3A3",
"-+	c #EBEBE2",
";+	c #000062",
">+	c #131370",
",+	c #E8E8E1",
"'+	c #D8D8D8",
")+	c #E5E5DF",
"!+	c #A8A8BF",
"~+	c #25257A",
"{+	c #000058",
"]+	c #000059",
"^+	c #00005B",
"/+	c #383883",
"(+	c #B7B7C7",
"_+	c #DBDBDA",
":+	c #D9D9D9",
"<+	c #DCDCDB",
"[+	c #4F4F90",
"}+	c #1E1E76",
"|+	c #000060",
"1+	c #0E0E6D",
"2+	c #66669C",
"3+	c #E3E3DE",
"4+	c #610D0F",
"5+	c #A71315",
"6+	c #AC1210",
"7+	c #C21719",
"8+	c #4B090B",
"9+	c #840F0F",
"0+	c #ECECE3",
"a+	c #00005A",
"b+	c #060669",
"c+	c #E9E9E1",
"d+	c #E8E8E0",
"e+	c #64649B",
"f+	c #00005F",
"g+	c #595995",
"h+	c #9494B4",
"i+	c #A3A3BC",
"j+	c #8E8EB1",
"k+	c #4C4C8E",
"l+	c #00005C",
"m+	c #000053",
"n+	c #EDEDE3",
"o+	c #000050",
"p+	c #1F1F77",
"q+	c #545492",
"r+	c #6A6A9E",
"s+	c #5E5E97",
"t+	c #0D0D6D",
"u+	c #11116F",
"v+	c #E4E4DF",
"w+	c #680E0B",
"x+	c #9E1516",
"y+	c #A71111",
"z+	c #010D0E",
"A+	c #A11111",
"B+	c #420C12",
"C+	c #450A07",
"D+	c #070769",
"E+	c #DDDDDB",
"F+	c #8888AE",
"G+	c #E1E1DD",
"H+	c #DCDCDA",
"I+	c #E2E2DE",
"J+	c #141470",
"K+	c #D6D6D7",
"L+	c #E7E7E0",
"M+	c #E0E0DD",
"N+	c #DEDEDB",
"O+	c #DFDFDC",
"P+	c #EFEFE5",
"Q+	c #343481",
"R+	c #7979A6",
"S+	c #690B08",
"T+	c #690D0C",
"U+	c #B91512",
"V+	c #030E0E",
"W+	c #941312",
"X+	c #000100",
"Y+	c #6E1013",
"Z+	c #000061",
"`+	c #00005D",
" @	c #CDCDD2",
".@	c #A7A7BE",
"+@	c #00005E",
"@@	c #48488B",
"#@	c #E2E2DD",
"$@	c #3C080C",
"%@	c #4E0B0E",
"&@	c #B61416",
"*@	c #4D0908",
"=@	c #270707",
"-@	c #0A0101",
";@	c #8F8FB2",
">@	c #3F3F87",
",@	c #9C9CB8",
"'@	c #5A5A96",
")@	c #7D0F0F",
"!@	c #A51510",
"~@	c #A71214",
"{@	c #050D0D",
"]@	c #670F13",
"^@	c #650E0F",
"/@	c #871111",
"(@	c #535392",
"_@	c #8383AB",
":@	c #D7D7D8",
"<@	c #E6E6DF",
"[@	c #D5D5D7",
"}@	c #C7C7CF",
"|@	c #DADAD9",
"1@	c #370908",
"2@	c #9E1316",
"3@	c #A11312",
"4@	c #050E0F",
"5@	c #650B0A",
"6@	c #4A0808",
"7@	c #881113",
"8@	c #E4E4DE",
"9@	c #353582",
"0@	c #A4A4BD",
"a@	c #12126F",
"b@	c #222278",
"c@	c #141471",
"d@	c #313180",
"e@	c #BEBECA",
"f@	c #600B0D",
"g@	c #460A09",
"h@	c #770D0F",
"i@	c #060E0E",
"j@	c #660B0B",
"k@	c #7F1216",
"l@	c #800C0E",
"m@	c #2C2C7D",
"n@	c #ACACC0",
"o@	c #1B1B74",
"p@	c #2A2A7C",
"q@	c #1A1A73",
"r@	c #030367",
"s@	c #7B7BA7",
"t@	c #7C0F0F",
"u@	c #A81415",
"v@	c #B81517",
"w@	c #000E0D",
"x@	c #0A0F0F",
"y@	c #330704",
"z@	c #393984",
"A@	c #9E9EBA",
"B@	c #7F7FA9",
"C@	c #7C0F0B",
"D@	c #AD1415",
"E@	c #0F0F0F",
"F@	c #5E5E98",
"G@	c #7676A4",
"H@	c #0A0A6B",
"I@	c #9C1514",
"J@	c #020E0D",
"K@	c #A51217",
"L@	c #A5A5BD",
"M@	c #252579",
"N@	c #EAEAE2",
"O@	c #040468",
"P@	c #370706",
"Q@	c #0E0F0F",
"R@	c #AA1311",
"S@	c #0B0B6C",
"T@	c #A6A6BE",
"U@	c #CCCCD2",
"V@	c #020267",
"W@	c #6B1015",
"X@	c #A81315",
"Y@	c #08086A",
"Z@	c #F7F7E9",
"`@	c #A1A1BB",
" #	c #9D9DB9",
".#	c #AAAAC0",
"+#	c #E0E0DC",
"@#	c #414188",
"##	c #565693",
"$#	c #6A0D0D",
"%#	c #030F0F",
"&#	c #A91215",
"*#	c #390708",
"=#	c #000065",
"-#	c #242479",
";#	c #222277",
">#	c #CECED3",
",#	c #64649A",
"'#	c #4E4E8F",
")#	c #07076A",
"!#	c #2D2D7E",
"~#	c #585894",
"{#	c #62629A",
"]#	c #151571",
"^#	c #6B0D0D",
"/#	c #050F0F",
"(#	c #B41616",
"_#	c #1D1D75",
":#	c #1D1D76",
"<#	c #67679C",
"[#	c #2B2B7C",
"}#	c #7D7DA8",
"|#	c #B2B2C4",
"1#	c #4D4D8E",
"2#	c #4F0B0C",
"3#	c #8A0F15",
"4#	c #E6E6E0",
"5#	c #DEDEDC",
"6#	c #610E0E",
"7#	c #741011",
"8#	c #AE1412",
"9#	c #C4181B",
"0#	c #820F0E",
"a#	c #7A7A7A",
"b#	c #660E0A",
"c#	c #9F1516",
"d#	c #420C11",
"e#	c #540D09",
"f#	c #790E12",
"g#	c #7F0F0D",
"h#	c #7A0C0D",
"i#	c #7B0F0D",
"j#	c #841211",
"k#	c #180305",
"l#	c #620C0B",
"m#	c #810F0E",
"n#	c #530A09",
"o#	c #880F0E",
"p#	c #8C1111",
"q#	c #8E0F11",
"r#	c #750D0D",
"s#	c #34090E",
"t#	c #7B0F12",
"u#	c #7F0E0E",
"v#	c #7F0F0B",
"w#	c #690D0B",
"x#	c #B71917",
"y#	c #420F10",
"z#	c #050000",
"A#	c #8B1519",
"B#	c #660D0A",
"C#	c #9B1413",
"D#	c #A41418",
"E#	c #821114",
"F#	c #1D0705",
"G#	c #1C0408",
"H#	c #851210",
"I#	c #B1181B",
"J#	c #4C0B10",
"K#	c #AA1416",
"L#	c #9C1211",
"M#	c #A01313",
"N#	c #871312",
"O#	c #550B0D",
"P#	c #5A1112",
"Q#	c #281313",
"R#	c #1C0303",
"S#	c #50090C",
"T#	c #911517",
"U#	c #390909",
"V#	c #070303",
"W#	c #560B0E",
"X#	c #B11511",
"Y#	c #540C0A",
"Z#	c #360708",
"`#	c #A51314",
" $	c #B21511",
".$	c #A61313",
"+$	c #9A1112",
"@$	c #480908",
"#$	c #2D0706",
"$$	c #190202",
"%$	c #4E080A",
"&$	c #901315",
"*$	c #370707",
"=$	c #050101",
"-$	c #B11512",
";$	c #A51214",
">$	c #570D0F",
",$	c #B31713",
"'$	c #550E0C",
")$	c #37080A",
"!$	c #AB1315",
"~$	c #791F1A",
"{$	c #0A0E0E",
"]$	c #090E0E",
"^$	c #0A0F0E",
"/$	c #0B0E0E",
"($	c #060E0D",
"_$	c #0B0F0F",
":$	c #0F1010",
"<$	c #010101",
"[$	c #919191",
"}$	c #393939",
"|$	c #3C3C3C",
"1$	c #3D3D3D",
"2$	c #090909",
"3$	c #404040",
"4$	c #343434",
"5$	c #FFFFFF",
"6$	c #E9E9E9",
"7$	c #DFDFDF",
"8$	c #C1C1C1",
"9$	c #C0C0C0",
"                                                                                                                                ",
"                                                                                                                                ",
"                                                                                                                                ",
"          . + @ @ @ @ @ @ @ @ @ @ @ @ @ @ @ @ @ @ @ @ @ @ @ @ @ @ @ @ @ @ @ @ @ @ @ @ @ @ @ @ @ @ @ @ @ @ @ @ @ @ + .           ",
"        # @ @ @ @ @ @ @ @ @ @ @ @ @ @ @ @ @ @ @ @ @ @ @ @ @ @ @ @ @ @ @ @ @ @ @ @ @ @ @ @ @ @ @ @ @ @ @ @ @ @ @ @ @ @ #         ",
"      $ @ @ @ @ @ @ @ @ @ @ @ @ @ @ @ @ @ @ @ @ @ @ @ @ @ @ @ @ @ @ @ @ @ @ @ @ @ @ @ @ @ @ @ @ @ @ @ @ @ @ @ @ @ @ @ @ $       ",
"      % @ @ @ @ @ @ @ @ @ @ @ @ @ @ @ @ @ @ @ @ @ @ @ @ @ @ @ @ @ @ @ @ @ @ @ @ @ @ @ @ @ @ @ @ @ @ @ @ @ @ @ @ @ @ @ @ %       ",
"      & @ @ @ @ @ @ @ @ @ @ @ @ @ @ @ @ @ @ @ @ @ @ @ @ @ @ @ @ @ @ @ @ @ @ @ @ @ @ @ @ @ @ @ @ @ @ @ @ @ @ @ @ @ @ @ @ &       ",
"      @ @ @ @ @ @ @ @ @ @ @ @ @ * * = - * ; > ; * , ' - ) * ! ~ ) { ] ) * ; > ) - ^ / - ) * ! ( _ @ @ @ @ @ @ @ @ @ @ @ @       ",
"      @ @ @ @ @ @ @ : < [ } | 1 2 3 4 5 6 7 8 9 0 a b c d e f g 2 3 4 5 6 7 8 9 0 a b c d e f g h i j 3 k l @ @ @ @ @ @ @       ",
"      @ @ @ @ @ @ m n o p q r s t q u v w x y z A B C o p q r s t q u v w x y z A B C o p q r s t q u v w D E @ @ @ @ @ @       ",
"      @ @ @ @ @ @ F G H I @ J K L M N O P Q R S @ @ T U V @ J K L M N O P Q R S @ @ T U V @ J K L M N W X 6 Y @ @ @ @ @ @       ",
"      @ @ @ @ @ @ Z `  ...+.@.@.@.@.@.@.@.@.@.@.@.@.@.@.@.@.@.@.@.@.@.@.@.@.@.@.@.@.@.@.@.@.+.#.$.%.%.&.*.=.@ @ @ @ @ @ @       ",
"      @ @ @ @ @ @ -.;.>.,.'.).!.).).!.).!.).).).).).).).).).).!.).).).).).!.).!.).).).).).).~.{.].^./.(._.:.<.@ @ @ @ @ @       ",
"      @ @ @ @ @ @ [.}.|.1.2.3.3.3.3.3.3.3.3.3.3.3.3.3.3.3.3.3.3.3.3.3.3.3.3.3.3.3.3.3.3.3.3.2.4.5.6.6.7.8.9.0.@ @ @ @ @ @       ",
"      @ @ @ @ @ @ a.b.c.d.e.f.f.f.g.f.f.f.f.f.f.f.f.f.f.f.f.f.f.f.f.f.f.f.g.f.f.f.f.f.f.f.f.e.h.i.j.k.l.m.n.o.@ @ @ @ @ @       ",
"      @ @ @ @ @ p.q.r.s.t.u.v.v.v.v.v.v.v.v.v.v.v.v.v.v.v.v.w.u.x.u.v.v.v.v.v.v.v.v.v.v.v.v.y.z.A.B.C.D.E.F.G.H.@ @ @ @ @       ",
"      @ @ @ @ @ I.J.K.L.M.N.O.P.Q.O.R.R.R.R.R.R.R.R.R.R.S.T.U.V.W.X.Y.Z.S.R.R.R.`.T. +Q.P..+U.R.R.R.N.M.@ ++@+#+@ @ @ @ @       ",
"      @ @ @ @ @ $+%+&+*+=+R.-+;+>+,+'+'+'+'+'+'+'+'+'+)+!+~+{+]+]+]+^+/+(+_+:+<+[+}+|+{+]+1+2+3+:+'+R.=+4+5+6+- @ @ @ @ @       ",
"      @ @ @ @ @ > 7+8+9+=+R.0+a+b+c+'+'+'+'+'+'+'+'+d+e+^+f+g+h+i+j+k+l+m+n+:+<+o+p+q+r+s+t+f+u+v+:+R.=+w+x+y+z+@ @ @ @ @       ",
"      @ @ @ @ @ z+A+B+C+=+R.0+^+D+c+'+'+'+'+'+'+'+E+F+l+t+'+G+H+_+H+I+'+J+T.:+K+K+L+M+N+O+P+Q+f+R+E+R.=+S+T+U+> @ @ @ @ @       ",
"      @ @ @ @ @ V+W+X+Y+=+R.0+^+D+c+'+'+'+'+'+'+:+v+Z+`+ @_+'+'+'+'+'+:+G+'+'+:+:+'+'+'+'+_+.@+@@@#@R.=+$@%@&@; @ @ @ @ @       ",
"      @ @ @ @ @ ^ *@=@-@=+R.0+^+D+c+'+'+'+'+'+'+H+;@f+>@)+'+'+'+'+'+'+'+:+'+'+'+'+'+'+'+'+E+,@+@'@O+R.=+)@!@~@- @ @ @ @ @       ",
"      @ @ @ @ @ {@]@^@/@=+R.0+^+D+c+'+'+'+'+'+'+M+(@f+_@<+'+'+'+'+'+'+'+'+'+'+'+'+:@L+<@c+[@u+a+}@|@R.=+1@2@3@) @ @ @ @ @       ",
"      @ @ @ @ @ 4@5@6@7@=+R.0+^+D+c+'+'+'+'+'+'+8@9@+@0@_+'+'+'+'+'+'+'+'+'+'+'+'+c+a@b@c@^+d@e@H+'+R.=+f@g@h@i@@ @ @ @ @       ",
"      @ @ @ @ @ / j@k@l@=+R.0+^+D+c+'+'+'+'+'+'+)+m@+@n@_+'+'+'+'+'+'+'+'+'+'+'+'+,+o@p@q@`+r@s@L+'+R.=+t@u@v@w@@ @ @ @ @       ",
"      @ @ @ @ @ x@y@C |.=+R.0+^+D+c+'+'+'+'+'+'+3+z@+@A@H+'+'+'+'+'+'+'+'+'+'+'+'+:@<@)+,+:+b@l+B@E+R.=+C@x D@) @ @ @ @ @       ",
"      @ @ @ @ @ E@@ G U =+R.0+^+D+c+'+'+'+'+'+'+O+F@|+G@E+'+'+'+'+'+'+'+'+'+'+'+'+'+'+'+'+|@:+l+H@,+R.=+P 6 I@V+@ @ @ @ @       ",
"      @ @ @ @ @ J@K@`  .=+R.0+^+D+c+'+'+'+'+'+'+_+L@`+M@N@'+'+'+'+'+'+'+|@'+'+'+'+'+'+'+'+'+0+O@^+0+R.=+P@=.@ Q@@ @ @ @ @       ",
"      @ @ @ @ @ - R@;.>.=+R.0+^+D+c+'+'+'+'+'+'+'+N@S@`+T@O+'+'+'+'+'+E+U@O.'+_+:+'+'+'+'+:+3+`+V@c+R.=+_.:.W@= @ @ @ @ @       ",
"      @ @ @ @ @ ) X@}.|.=+R.0+^+Y@Z@<@<@<@<@<@L+:+|@(+^+|+`@0+M+O+G+n+ #a+0+O..#<+)++#O+#@0+@#|+##M+R.=+8.9.$#= @ @ @ @ @       ",
"      @ @ @ @ @ %#&#b.*#=+R.0+a+=#-#;#;#;#;#;#J+>#:+O+.@f+^+>+q+,#'#)#^+f+N@N+e+{+!#~#{#k+=#+@]#G+:+R.=+m.n.^#/#@ @ @ @ @       ",
"      @ @ @ @ @ _ (#r.s.=+R.,+_#m@p@p@p@p@p@p@:#>#|@'+<+|@<#q@+@]+;+[#}#)+'+O.|#1#]#+@]+Z+M@}#L+:+'+R.=+E.F.2#@ @ @ @ @ @       ",
"      @ @ @ @ @ @ 3#K.L.=+R.:@4#)+)+)+)+)+)+)+<@:+'+'+'+:+5#L+-+0+N@)+E+:+'+'+|@G+L+-+0+N@)+E+'+'+'+R.=+@ ++6#@ @ @ @ @ @       ",
"      @ @ @ @ @ @ 7#&+*+M.N.R.R.R.R.R.R.R.R.R.R.R.R.R.R.R.R.R.R.R.R.R.R.R.R.R.R.R.R.R.R.R.R.R.R.R.R.N.M.4+5+8#@ @ @ @ @ @       ",
"      @ @ @ @ @ @ 9#8+0#a#M.=+=+=+=+=+=+=+=+=+=+=+=+=+=+=+=+=+=+=+=+=+=+=+=+=+=+=+=+=+=+=+=+=+=+=+=+M.a#b#x+d @ @ @ @ @ @       ",
"      @ @ @ @ @ @ c#d#e#f#g#h#i#j#k#l#m#S+n#o#p#q#r#s#C+t#g#h#i#j#k#l#m#S+n#o#p#q#r#s#C+t#g#h#i#j#k#l#u#v#w#x#@ @ @ @ @ @       ",
"      @ @ @ @ @ @ y#z#A#B#C#D#E#F#G#H#I#J#%@K#L#M#N#X+A#B#C#D#E#F#G#H#I#J#%@K#L#M#N#X+A#B#C#D#E#F#G#H#I#J#O#P#@ @ @ @ @ @       ",
"      @ @ @ @ @ @ @ Q#R#S#T#U#V#W#X#Y#Z#`# $~@.$+$@$#$$$%$&$*$=$O#-$Y#Z#;$ $~@.$+$@$#$$$%$&$*$=$>$,$'$)$!$~$@ @ @ @ @ @ @       ",
"      @ @ @ @ @ @ @ @ @ @ @ @ @ H.* {$]$* z+* ) V+{${$~ ^$] /$Q@($- _$^ * ; * ) * _${$~ {$] /$:$@ @ @ @ @ @ @ @ @ @ @ @ @       ",
"      & @ @ @ @ @ @ @ @ @ @ @ @ @ @ @ @ @ @ @ @ @ @ @ @ @ @ @ @ @ @ @ @ @ @ @ @ @ @ @ @ @ @ @ @ @ @ @ @ @ @ @ @ @ @ @ @ &       ",
"      % @ @ @ @ @ @ @ @ @ @ @ @ @ @ @ @ @ @ @ @ @ @ @ @ @ @ @ @ @ @ @ @ @ @ @ @ @ @ @ @ @ @ @ @ @ @ @ @ @ @ @ @ @ @ @ @ %       ",
"      $ @ @ @ @ @ @ @ @ @ @ @ @ @ @ @ @ @ @ @ @ @ @ @ @ @ @ @ @ @ @ @ @ @ @ @ @ @ @ @ @ @ @ @ @ @ @ @ @ @ @ @ @ @ @ @ @ $       ",
"        # @ @ @ @ @ @ @ @ @ @ @ @ @ @ @ @ @ @ @ @ @ @ @ @ @ @ @ @ @ @ @ @ @ @ @ @ @ @ @ @ @ @ @ @ @ @ @ @ @ @ @ <$@ @ #         ",
"          . + @ @ @ @ @ @ @ @ @ @ @ @ @ @ @ @ @ @ @ @ @ @ @ @ @ @ @ @ @ @ @ @ @ @ @ @ @ @ @ @ @ @ @ @ @ @ @ @ @ @ + .           ",
"                                                                                                                                ",
"                                                                                                                                ",
"              [$}$|$|$1$1$|$|$1$1$|$|$1$1$|$|$1$1$|$|$1$1$|$|$1$1$|$|$1$1$|$|$1$1$|$|$1$1$|$|$1$1$|$|$1$1$|$|$}$[$              ",
"              }$2$3$1$4$4$1$1$4$4$1$1$4$4$1$1$4$4$1$1$4$4$1$1$4$4$1$1$4$4$1$1$4$4$1$1$4$4$1$1$4$4$1$1$4$4$1$3$2$}$              ",
"              |$3$5$5$6$6$5$5$6$6$5$5$6$6$5$5$6$6$5$5$6$6$5$5$6$6$5$5$6$6$5$5$6$6$5$5$6$6$5$5$6$6$5$5$6$6$5$5$3$|$              ",
"              |$1$5$5$7$7$5$5$7$7$5$5$7$7$5$5$7$7$5$5$7$7$5$5$7$7$5$5$7$7$5$5$7$7$5$5$7$7$5$5$7$7$5$5$7$7$5$5$1$|$              ",
"              1$4$6$7$8$8$7$7$8$8$7$7$8$8$7$7$8$8$7$7$8$8$7$7$8$8$7$7$8$8$7$7$8$8$7$7$8$8$7$7$8$8$7$7$8$8$7$6$4$1$              ",
"              1$4$6$7$8$8$7$7$8$8$7$7$8$8$7$7$8$8$7$7$8$8$7$7$8$8$7$7$8$8$7$7$8$8$7$7$8$8$7$7$8$8$7$7$8$8$7$6$4$1$              ",
"              |$1$5$5$7$7$5$5$7$7$5$5$7$7$5$5$7$7$5$5$7$7$5$5$7$7$5$5$7$7$5$5$7$7$5$5$7$7$5$5$7$7$5$5$7$7$5$5$1$|$              ",
"              |$1$5$5$7$7$5$5$7$7$5$5$7$7$5$5$7$7$5$5$7$7$5$5$7$7$5$5$7$7$5$5$7$7$5$5$7$7$5$5$7$7$5$5$7$7$5$5$1$|$              ",
"              1$4$6$7$8$8$7$7$8$8$7$7$8$8$7$7$8$8$7$7$8$8$7$7$8$8$7$7$8$8$7$7$9$9$7$7$8$8$7$7$8$8$7$7$8$8$7$6$4$1$              ",
"              1$4$6$7$8$8$7$7$8$8$7$7$8$8$7$7$8$8$7$7$8$8$7$7$8$8$7$7$8$8$7$7$9$9$7$7$8$8$7$7$8$8$7$7$8$8$7$6$4$1$              ",
"              |$1$5$5$7$7$5$5$7$7$5$5$7$7$5$5$7$7$5$5$7$7$5$5$7$7$5$5$7$7$5$5$7$7$5$5$7$7$5$5$7$7$5$5$7$7$5$5$1$|$              ",
"              |$3$5$5$6$6$5$5$6$6$5$5$6$6$5$5$6$6$5$5$6$6$5$5$6$6$5$5$6$6$5$5$6$6$5$5$6$6$5$5$6$6$5$5$6$6$5$5$3$|$              ",
"              }$2$3$1$4$4$1$1$4$4$1$1$4$4$1$1$4$4$1$1$4$4$1$1$4$4$1$1$4$4$1$1$4$4$1$1$4$4$1$1$4$4$1$1$4$4$1$3$2$}$              ",
"              [$}$|$|$1$1$|$|$1$1$|$|$1$1$|$|$1$1$|$|$1$1$|$|$1$1$|$|$1$1$|$|$1$1$|$|$1$1$|$|$1$1$|$|$1$1$|$|$}$[$              ",
"                                                                                                                                ",
"                                                                                                                                ",
"                                                                                                                                "};
